# Blender v2.66 (sub 1) OBJ File: ''
# www.blender.org
v 0.000000 -0.500000 0.000000
v 0.262862 -0.223610 -0.361804
v 0.425325 -0.223610 0.138194
v 0.000000 -0.223608 0.447213
v -0.425325 -0.223610 0.138194
v -0.262863 -0.223610 -0.361803
v 0.425325 0.223610 -0.138194
v 0.262863 0.223610 0.361803
v -0.262862 0.223610 0.361804
v -0.425325 0.223610 -0.138194
v -0.000000 0.223608 -0.447213
v 0.000000 0.500000 0.000000
v 0.154506 -0.425327 -0.212661
v 0.404506 -0.262869 -0.131435
v 0.249998 -0.425327 0.081228
v -0.154506 -0.425327 -0.212661
v -0.000000 -0.262868 -0.425324
v 0.249999 -0.262868 0.344095
v 0.000000 -0.425326 0.262865
v -0.249998 -0.262868 0.344095
v -0.249998 -0.425327 0.081228
v -0.404506 -0.262869 -0.131434
v -0.154507 0.000000 -0.475529
v 0.154506 0.000000 -0.475529
v 0.404508 0.000000 -0.293893
v 0.404509 0.000000 0.293893
v 0.154507 0.000000 0.475529
v -0.154506 0.000000 0.475529
v -0.404508 0.000000 0.293893
v -0.404509 0.000000 -0.293893
v 0.249998 0.262868 -0.344095
v 0.404506 0.262869 0.131434
v 0.000000 0.262868 0.425324
v -0.404506 0.262869 0.131435
v -0.249999 0.262868 -0.344095
v -0.000000 0.425326 -0.262865
v 0.249998 0.425327 -0.081228
v 0.154506 0.425327 0.212661
v -0.154506 0.425327 0.212661
v -0.249998 0.425327 -0.081228
v -0.961429 -0.405927 0.283617
v -0.961429 0.405927 -0.283616
v -0.937177 -0.477195 -0.269743
v -0.937180 -0.000000 0.603159
v -0.837643 -0.000000 0.000001
v -0.937180 -0.000000 -0.603158
v -0.937177 0.477195 0.269744
v 0.961429 -0.405927 0.283616
v 0.961429 0.405927 -0.283617
v 0.937177 -0.477195 -0.269744
v 0.937180 0.000000 -0.603159
v 0.837643 0.000000 -0.000001
v 0.937180 0.000000 0.603158
v 0.937177 0.477195 0.269743
vt 0.903830 0.156128
vt 0.857724 0.218399
vt 0.837283 0.133707
vt 0.516773 0.202110
vt 0.524275 0.124386
vt 0.573578 0.187293
vt 0.887560 0.080064
vt 0.178844 0.587998
vt 0.187164 0.655024
vt 0.112765 0.605322
vt 0.564080 0.057413
vt 0.641046 0.039398
vt 0.601384 0.102242
vt 0.568249 0.262064
vt 0.140962 0.000000
vt 0.135921 0.067587
vt 0.000000 0.009306
vt 0.172947 0.732645
vt 0.232744 0.718274
vt 0.183048 0.792686
vt 0.046371 0.648087
vt 0.109299 0.690343
vt 0.032354 0.725722
vt 0.647959 0.164437
vt 0.690350 0.102305
vt 0.717528 0.187394
vt 0.632161 0.531639
vt 0.696872 0.549050
vt 0.622472 0.598752
vt 0.762846 0.905213
vt 0.673547 0.907342
vt 0.622472 0.736476
vt 0.106755 0.775424
vt 0.329696 0.126834
vt 0.380852 0.067587
vt 0.412924 0.260680
vt 0.645358 0.239921
vt 0.636488 0.676387
vt 0.699416 0.634131
vt 0.702882 0.719153
vt 0.363931 0.685726
vt 0.406321 0.747859
vt 0.317355 0.747921
vt 0.232744 0.648053
vt 0.289549 0.662870
vt 0.240246 0.725777
vt 0.766441 0.387551
vt 0.753201 0.465508
vt 0.689019 0.403181
vt 0.763065 0.591829
vt 0.822862 0.606200
vt 0.777282 0.669451
vt 0.773101 0.196033
vt 0.759862 0.118077
vt 0.794638 0.262165
vt 0.802938 0.057698
vt 0.037964 0.588154
vt 0.773165 0.531788
vt 0.433499 0.447213
vt 0.454772 0.370994
vt 0.590087 0.531639
vt 0.187077 0.126834
vt 0.000231 0.137848
vt 0.719529 0.243238
vt 0.361329 0.610242
vt 0.433499 0.662769
vt 0.428169 0.587998
vt 0.717528 0.073049
vt 0.042043 0.792835
vt 0.842111 0.736476
vt 0.931410 0.738605
vt 0.959600 0.907151
vt 0.433618 0.753748
vt 0.454772 0.692284
vt 0.582483 0.801113
vt 0.258386 0.123207
vt 0.433618 0.309530
vt 0.622472 0.385504
vt 0.240990 0.262165
vt 0.284220 0.588099
vt 0.375810 0.000000
vt 0.516542 0.137848
vt 0.433499 0.616066
vt 0.622472 0.677774
vt 0.806773 0.512712
vt 0.731664 0.531639
vt 0.712198 0.262165
vt 0.808774 0.342523
vt 0.723365 0.327172
vt 0.768962 0.736476
vt 0.357017 0.810765
vt 0.280051 0.792750
vt 0.628081 0.736321
vt 0.668578 0.487873
vt 0.622472 0.425602
vt 0.638742 0.349539
vt 0.433499 0.469153
vt 0.384522 0.587998
vt 0.302611 0.432218
vt 0.808813 0.270176
vt 0.904944 0.373310
vt 0.808774 0.419856
vt 0.258641 0.262165
vt 0.384775 0.316018
vt 0.874473 0.531639
vt 0.258386 0.534145
vt 0.903830 0.112484
vt 0.969529 0.000701
vt 1.000000 0.159030
vt 0.903869 0.262165
vt 0.214162 0.432218
vt 0.132251 0.587998
vt 0.083273 0.469153
vt 0.258132 0.262165
vt 0.131998 0.316018
vt 0.791036 0.736666
vt 0.103848 0.260680
vt 0.791036 0.907342
vt 0.275783 0.262165
vt 0.582483 0.262165
vt 0.516773 0.009306
vn 0.315090 -0.943523 -0.102381
vn 0.268031 -0.661699 -0.700224
vn 0.194737 -0.943523 0.268034
vn -0.194736 -0.943523 0.268034
vn -0.315090 -0.943523 -0.102381
vn 0.268031 -0.330385 -0.904989
vn -0.421195 0.544342 -0.725456
vn 0.315095 -0.330385 0.889697
vn -0.748783 -0.330388 0.574602
vn -0.777865 -0.330386 -0.534576
vn 0.583126 -0.125627 -0.802610
vn -0.442824 -0.471365 -0.762707
vn 0.000001 -0.125628 0.992077
vn 0.332154 -0.929388 0.160969
vn -0.583127 -0.125627 -0.802609
vn 0.628425 0.661699 -0.408947
vn 0.583123 0.661699 0.471299
vn -0.268031 0.661699 0.700224
vn -0.748779 0.661699 -0.038530
vn -0.194737 0.661695 -0.724042
vn 0.748779 -0.661699 0.038530
vn 0.577345 -0.794658 -0.187595
vn 0.583122 -0.661699 -0.471300
vn -0.268032 -0.661699 -0.700224
vn -0.000000 -0.794656 -0.607060
vn -0.000000 -0.943524 -0.331305
vn 0.194737 -0.661695 0.724042
vn 0.356821 -0.794657 0.491119
vn 0.628425 -0.661699 0.408946
vn -0.628425 -0.661698 0.408947
vn -0.356821 -0.794657 0.491120
vn -0.194736 -0.661695 0.724042
vn -0.583123 -0.661699 -0.471299
vn -0.577345 -0.794658 -0.187594
vn -0.748779 -0.661699 0.038531
vn -0.000001 0.125628 -0.992077
vn -0.000001 -0.187599 -0.982246
vn -0.268032 -0.330385 -0.904989
vn -0.421195 -0.544342 0.725456
vn -0.356732 0.920138 -0.161520
vn 0.777864 -0.330387 -0.534576
vn 0.583127 0.125627 0.802609
vn 0.577348 -0.187595 0.794655
vn 0.748784 -0.330388 0.574601
vn -0.583126 0.125627 0.802610
vn -0.577347 -0.187595 0.794656
vn -0.315094 -0.330385 0.889697
vn 0.396891 0.482541 0.780790
vn 0.332154 0.929388 -0.160969
vn 0.396889 -0.482541 -0.780790
vn 0.748783 0.330388 -0.574602
vn 0.577347 0.187595 -0.794656
vn 0.315094 0.330385 -0.889697
vn 0.777865 0.330386 0.534576
vn -0.356732 -0.920138 0.161520
vn -0.442823 0.471365 0.762708
vn -0.268031 0.330385 0.904989
vn 0.000001 0.187599 0.982246
vn 0.268032 0.330385 0.904989
vn 0.387789 -0.550746 0.739119
vn 0.387788 0.550746 -0.739120
vn -0.777864 0.330387 0.534576
vn -0.315095 0.330385 -0.889697
vn -0.577349 0.187595 -0.794655
vn -0.748784 0.330388 -0.574601
vn 0.194736 0.943523 -0.268034
vn 0.356821 0.794657 -0.491120
vn 0.194736 0.661695 -0.724042
vn 0.315090 0.943523 0.102381
vn 0.577345 0.794658 0.187594
vn 0.748779 0.661699 -0.038531
vn 0.000000 0.943524 0.331305
vn 0.000000 0.794656 0.607060
vn 0.268032 0.661699 0.700224
vn -0.315090 0.943523 0.102381
vn -0.577345 0.794658 0.187595
vn -0.583122 0.661699 0.471300
vn -0.194737 0.943523 -0.268034
vn -0.356821 0.794657 -0.491119
vn -0.628425 0.661699 -0.408946
vn -0.969824 0.183922 -0.160046
vn -0.969823 -0.183922 0.160047
vn -0.980332 0.113030 0.161781
vn -0.967119 0.243403 -0.073733
vn -0.967119 -0.243403 0.073735
vn -0.980332 -0.113030 -0.161780
vn 0.967119 0.243403 -0.073735
vn 0.969824 0.183922 -0.160047
vn 0.969824 -0.183922 0.160046
vn 0.980332 0.113029 0.161780
vn 0.980332 -0.113030 -0.161781
vn 0.967119 -0.243403 0.073733
vn -0.391449 0.583503 -0.711542
vn -0.405262 -0.523602 -0.749402
vn 0.351595 -0.926407 0.134722
vn -0.391448 -0.583503 0.711542
vn -0.339557 0.930880 -0.134771
vn 0.429744 0.517159 0.740180
vn 0.351595 0.926407 -0.134723
vn 0.429743 -0.517159 -0.740181
vn -0.339557 -0.930880 0.134771
vn -0.405261 0.523602 0.749402
vn 0.409259 -0.579335 0.704896
vn 0.409258 0.579335 -0.704896
s off
f 1/1/1 13/2/1 15/3/1
f 2/4/2 13/5/2 17/6/2
f 1/1/3 15/3/3 19/7/3
f 1/8/4 19/9/4 21/10/4
f 1/11/5 21/12/5 16/13/5
f 2/4/6 17/6/6 24/14/6
f 25/15/7 7/16/7 51/17/7
f 4/18/8 18/19/8 27/20/8
f 5/21/9 20/22/9 29/23/9
f 6/24/10 22/25/10 30/26/10
f 2/27/11 24/28/11 25/29/11
f 14/30/12 25/31/12 51/32/12
f 4/18/13 27/20/13 28/33/13
f 22/34/14 5/35/14 43/36/14
f 6/24/15 30/26/15 23/37/15
f 7/38/16 31/39/16 37/40/16
f 8/41/17 32/42/17 38/43/17
f 9/44/18 33/45/18 39/46/18
f 10/47/19 34/48/19 40/49/19
f 11/50/20 35/51/20 36/52/20
f 15/3/21 14/53/21 3/54/21
f 15/3/22 13/2/22 14/53/22
f 13/2/23 2/55/23 14/53/23
f 17/6/24 16/13/24 6/24/24
f 17/6/25 13/5/25 16/13/25
f 13/5/26 1/11/26 16/13/26
f 19/9/27 18/19/27 4/18/27
f 19/7/28 15/3/28 18/56/28
f 15/3/29 3/54/29 18/56/29
f 21/10/30 20/22/30 5/21/30
f 21/10/31 19/9/31 20/22/31
f 19/9/32 4/18/32 20/22/32
f 16/13/33 22/25/33 6/24/33
f 16/13/34 21/12/34 22/25/34
f 21/10/35 5/21/35 22/57/35
f 24/28/36 23/58/36 11/50/36
f 24/14/37 17/6/37 23/37/37
f 17/6/38 6/24/38 23/37/38
f 26/59/39 3/60/39 53/61/39
f 7/16/40 32/62/40 49/63/40
f 14/53/41 2/55/41 25/64/41
f 27/65/42 26/66/42 8/41/42
f 27/65/43 18/67/43 26/66/43
f 18/56/44 3/54/44 26/68/44
f 29/23/45 28/33/45 9/69/45
f 29/23/46 20/22/46 28/33/46
f 20/22/47 4/18/47 28/33/47
f 29/70/48 34/71/48 47/72/48
f 34/73/49 10/74/49 47/75/49
f 30/76/50 22/34/50 43/36/50
f 25/29/51 31/39/51 7/38/51
f 25/29/52 24/28/52 31/39/52
f 24/28/53 11/50/53 31/39/53
f 26/66/54 32/42/54 8/41/54
f 3/60/55 14/77/55 48/78/55
f 32/62/56 26/76/56 53/79/56
f 28/80/57 33/45/57 9/44/57
f 28/80/58 27/65/58 33/45/58
f 27/65/59 8/41/59 33/45/59
f 5/35/60 29/81/60 41/82/60
f 10/74/61 30/83/61 42/84/61
f 29/85/62 9/86/62 34/48/62
f 23/58/63 35/51/63 11/50/63
f 23/37/64 30/26/64 35/87/64
f 30/88/65 10/47/65 35/89/65
f 37/40/66 36/52/66 12/90/66
f 37/40/67 31/39/67 36/52/67
f 31/39/68 11/50/68 36/52/68
f 38/43/69 37/91/69 12/92/69
f 38/43/70 32/42/70 37/91/70
f 32/93/71 7/38/71 37/40/71
f 39/46/72 38/43/72 12/92/72
f 39/46/73 33/45/73 38/43/73
f 33/45/74 8/41/74 38/43/74
f 40/49/75 39/94/75 12/95/75
f 40/49/76 34/48/76 39/94/76
f 34/48/77 9/86/77 39/94/77
f 36/96/78 40/49/78 12/95/78
f 36/96/79 35/89/79 40/49/79
f 35/89/80 10/47/80 40/49/80
f 41/97/81 44/98/81 45/99/81
f 46/100/82 45/101/82 42/102/82
f 46/103/83 43/104/83 45/99/83
f 43/104/84 41/97/84 45/99/84
f 45/101/85 47/105/85 42/102/85
f 45/99/86 44/98/86 47/106/86
f 48/107/87 50/108/87 52/109/87
f 48/107/88 52/109/88 53/110/88
f 52/111/89 51/112/89 49/113/89
f 52/111/90 50/106/90 51/112/90
f 53/114/91 52/111/91 54/115/91
f 52/111/92 49/113/92 54/115/92
f 7/16/93 49/63/93 51/17/93
f 50/116/94 14/30/94 51/32/94
f 5/35/95 41/82/95 43/36/95
f 3/60/96 48/78/96 53/61/96
f 32/62/97 54/117/97 49/63/97
f 44/118/98 29/70/98 47/72/98
f 10/74/99 42/84/99 47/75/99
f 46/119/100 30/76/100 43/36/100
f 14/77/101 50/120/101 48/78/101
f 54/117/102 32/62/102 53/79/102
f 29/81/103 44/121/103 41/82/103
f 30/83/104 46/61/104 42/84/104
