# Blender v2.66 (sub 1) OBJ File: ''
# www.blender.org
v 1.000000 0.000000 -1.000000
v 1.000000 0.000000 1.000000
v -1.000000 0.000000 1.000000
v -1.000000 0.000000 -1.000000
v 1.000000 3.000000 -0.999999
v 0.999999 3.000000 1.000001
v -1.000000 3.000000 1.000000
v -1.000000 3.000000 -1.000000
vt 0.998981 0.498982
vt 1.000000 0.830957
vt 0.668025 0.831975
vt 1.000000 0.167006
vt 0.667006 0.497963
vt 0.331975 0.498982
vt 0.333503 0.996945
vt 0.001528 0.997963
vt 0.001528 0.498982
vt 0.000000 0.001018
vt 0.333503 0.497963
vt 0.665478 0.498982
vt 0.667006 0.996945
vt 0.333503 0.500000
vt 0.665478 0.000000
vt 0.335031 0.498982
vt 0.667006 0.500000
vt 0.668024 0.165988
vt 0.000000 0.500000
vt 0.331975 0.000000
vt 0.335031 0.997963
vt 0.333503 0.001019
vn 0.000000 -1.000000 0.000000
vn -0.000000 1.000000 0.000000
vn 1.000000 -0.000000 0.000001
vn -0.000000 -0.000000 1.000000
vn -1.000000 -0.000000 -0.000000
vn 0.000000 0.000000 -1.000000
vn 1.000000 0.000000 -0.000000
s off
f 1/1/1 2/2/1 3/3/1
f 5/4/2 8/1/2 7/5/2
f 1/6/3 5/7/3 6/8/3
f 2/9/4 6/10/4 3/11/4
f 3/12/5 7/13/5 4/14/5
f 5/15/6 1/5/6 4/16/6
f 4/17/1 1/1/1 3/3/1
f 6/18/2 5/4/2 7/5/2
f 2/19/7 1/6/7 6/8/7
f 6/10/4 7/20/4 3/11/4
f 7/13/5 8/21/5 4/14/5
f 8/22/6 5/15/6 4/16/6
